<svg xmlns="http://www.w3.org/2000/svg" viewBox="0 0 512 512">
  <rect width="512" height="512" rx="108" fill="#071421"/>
  <circle cx="256" cy="256" r="184" fill="none" stroke="#f3c64c" stroke-width="20"/>
  <path d="M372 182c-36-74-132-94-191-39-46 43-45 121 2 161 34 29 89 33 128 11 23-13 38-33 43-57-35 43-100 45-132 2-26-36-14-87 25-108 42-23 95-2 109 43z" fill="#0f8a63"/>
  <path d="M151 306c52 111 222 96 246-26 15 105-90 190-201 144-55-23-93-74-97-132z" fill="#f3c64c"/>
  <rect x="181" y="143" width="150" height="214" rx="22" fill="#fff7dc" stroke="#173d33" stroke-width="10"/>
  <path d="M256 191v126M214 234h84M231 211l25 23 25-23M231 291l25-23 25 23" stroke="#c72525" stroke-width="18" stroke-linecap="round" stroke-linejoin="round"/>
</svg>
